<?xml version="1.0" standalone="no"?>
<!DOCTYPE svg PUBLIC "-//W3C//DTD SVG 20010904//EN"
 "http://www.w3.org/TR/2001/REC-SVG-20010904/DTD/svg10.dtd">
<svg version="1.0" xmlns="http://www.w3.org/2000/svg"
 width="104.000000pt" height="78.000000pt" viewBox="0 0 104.000000 78.000000"
 preserveAspectRatio="xMidYMid meet">
<metadata>
Created by potrace 1.10, written by Peter Selinger 2001-2011
</metadata>
<g transform="translate(0.000000,78.000000) scale(0.100000,-0.100000)"
fill="#000000" stroke="none">
<path d="M332 597 c-20 -22 -22 -33 -22 -165 0 -150 -4 -164 -45 -142 -54 29
-145 -24 -129 -74 21 -67 87 -109 170 -108 63 0 104 20 140 68 l27 35 25 -31
c79 -101 279 -98 341 5 44 71 34 136 -31 202 -37 38 -40 43 -22 49 28 10 64
45 64 62 0 29 -43 83 -81 102 -26 14 -58 20 -104 20 -71 0 -111 -15 -157 -58
-21 -19 -28 -22 -28 -10 0 8 -9 27 -21 42 -28 35 -95 37 -127 3z m108 -185 c0
-135 -3 -179 -15 -202 -44 -85 -207 -84 -251 1 -18 36 -17 38 23 43 17 1 35 6
41 10 6 4 16 -3 22 -14 7 -13 21 -20 41 -20 43 0 49 26 49 203 l0 152 45 0 45
0 0 -173z m305 158 c29 -11 75 -57 75 -75 0 -18 -81 -27 -100 -11 -41 36 -110
25 -110 -18 0 -27 18 -45 53 -51 43 -8 95 -34 132 -66 29 -26 35 -38 35 -71 0
-45 -22 -93 -49 -107 -79 -43 -195 -30 -248 26 -18 19 -33 40 -33 47 0 7 19
16 43 22 38 8 44 7 63 -15 39 -46 124 -28 124 25 0 26 -27 42 -107 63 -62 17
-113 69 -113 115 0 50 22 90 62 109 37 19 133 22 173 7z m-216 -224 l33 -34
-34 -13 c-18 -7 -36 -14 -40 -17 -5 -2 -8 19 -8 47 0 28 4 51 8 51 4 0 23 -15
41 -34z"/>
</g>
</svg>
